<svg xmlns="http://www.w3.org/2000/svg" viewBox="0 0 510.99 379.55"><defs><style>.cls-1{fill:#ffe212;}.cls-2{fill:#ff1515;}.cls-3{font-size:277.46px;fill:#fcfbf7;stroke:#000;stroke-miterlimit:10;stroke-width:10px;font-family:Rockwell-ExtraBold, Rockwell Extra Bold;}</style></defs><title>maillot_lens_2</title><g id="Calque_2" data-name="Calque 2"><polygon class="cls-1" points="17 142.28 114 37.5 139 23.28 205 23.28 246 7.28 290 15.37 318 27.28 379 27.28 412 51.28 500 142.28 439 202.28 373 139.28 374 373.28 139 373.28 137 142.28 73 204.28 17 142.28"/><polygon class="cls-2" points="141 368.28 318 27.28 379 27.28 216.5 368.28 141 368.28"/></g><g id="Calque_1" data-name="Calque 1"><path d="M398.43,93.67,376.32,84H311.68c-6.84-4.3-29.18-16.9-55.67-16.9S207.16,79.7,200.32,84H135.71l-22.15,9.68L.51,207.14,75,281.65,129.63,227V446.63H382.39V227L437,281.65l74.45-74.51L398.43,93.67Zm-97.16,2c-2.42,5-11.37,18.57-38.1,20.66l-1.93,10.37H250.11l-1.93-10.43C222,114,213.12,100.63,210.72,95.66c7.44-4.33,25.15-13.21,45.28-13.21S293.82,91.36,301.27,95.68ZM22.21,207.13,31,198.32l52.75,52.81L75,259.92ZM145,431.26v-11H367v11ZM367,189.91V408.73H145V189.88L91.89,243,39.12,190.15l83.28-83.57,16.52-7.23h56.71a34.27,34.27,0,0,0,2,4.31H145.32l-20.75,9.07-45,45.45L85,163.59l44-44.41,17.92-7.84h55.9a47.22,47.22,0,0,0,5.27,5.38H151.76L131,125.79,89.26,167.94l5.46,5.41,40.72-41.11,17.92-7.83h66.25c7.31,3.64,16.7,6.45,28.7,7.3v60.82h15.37V131.71c12-.85,21.41-3.65,28.71-7.3h66.25l17.92,7.83,40.72,41.11,5.45-5.41L381,125.79l-20.75-9.07H303.92a49,49,0,0,0,5.27-5.38h55.89L383,119.18l44,44.41,5.45-5.41-45.05-45.45-20.75-9.07H314.41a34.65,34.65,0,0,0,2-4.31h56.73l16.49,7.22,83.28,83.59L420.1,243Zm70,70-8.78-8.78L481,198.32l8.77,8.81Z" transform="translate(-0.51 -67.09)"/><text class="cls-3" transform="translate(152.5 288.36) scale(1.08 1)">2</text></g></svg>