<svg xmlns="http://www.w3.org/2000/svg" viewBox="0 0 510.99 379.55"><defs><style>.cls-1{fill:#5b74ce;}</style></defs><title>maillot_bleu</title><g id="Calque_2" data-name="Calque 2"><polygon class="cls-1" points="17 142.28 114 37.5 139 23.28 205 23.28 246 7.28 290 15.37 318 27.28 379 27.28 412 51.28 500 142.28 439 202.28 373 139.28 374 373.28 139 373.28 137 142.28 73 204.28 17 142.28"/></g><g id="Calque_1" data-name="Calque 1"><path d="M397.92,28.3l-22.11-9.68H311.17C304.34,14.33,282,1.72,255.5,1.72s-48.85,12.61-55.69,16.9H135.2L113.05,28.3,0,141.77l74.44,74.52,54.68-54.68V381.27H381.88V161.64l54.65,54.65L511,141.77,397.92,28.3Zm-97.15,2c-2.43,5-11.38,18.57-38.1,20.66l-1.93,10.37H249.6l-1.93-10.43c-26.23-2.26-35.06-15.64-37.46-20.62,7.44-4.32,25.15-13.2,45.28-13.2S293.31,26,300.77,30.31ZM21.7,141.76,30.48,133l52.75,52.81-8.79,8.79ZM144.49,365.9v-11h222v11Zm222-241.36V343.36h-222V124.51l-53.11,53.1L38.62,124.78l83.27-83.57L138.41,34h56.71a33.21,33.21,0,0,0,2,4.31H144.81l-20.74,9.07L79,92.81l5.45,5.41,44-44.41L146.41,46h55.9a48.15,48.15,0,0,0,5.28,5.37H151.25L130.5,60.42,88.76,102.57,94.22,108l40.71-41.1L152.85,59H219.1c7.31,3.65,16.7,6.45,28.71,7.3v60.82h15.36V66.34c12-.85,21.41-3.65,28.72-7.3h66.24l17.92,7.84L416.77,108l5.46-5.41L380.48,60.42l-20.75-9.07H303.41A48.92,48.92,0,0,0,308.68,46h55.89l17.93,7.83,44,44.41L432,92.81,386.92,47.36l-20.75-9.07H313.9a34.65,34.65,0,0,0,2-4.31H372.6l16.5,7.23,83.27,83.58L419.6,177.62Zm70,70-8.78-8.78L480.51,133l8.77,8.81Z" transform="translate(0 -1.72)"/></g></svg>